<svg width="646" height="190" viewBox="0 0 646 190" fill="none" xmlns="http://www.w3.org/2000/svg">
    <path fill-rule="evenodd" clip-rule="evenodd"
        d="M324.631 103.769H314.097V61.7818C314.097 56.395 313.057 52.3239 310.977 49.5683C309.859 47.9712 308.363 46.6754 306.623 45.7961C304.883 44.9167 302.953 44.4812 301.004 44.5282C296.559 44.5282 293.088 46.6127 290.59 50.7816C289.386 52.7323 288.617 54.9199 288.337 57.195C288.121 59.5263 288.032 61.8675 288.07 64.2085V103.769H277.537V62.9284C277.537 57.195 276.541 52.8972 274.55 50.035C273.408 48.2768 271.828 46.8459 269.966 45.8825C268.104 44.9191 266.023 44.4564 263.928 44.5398C261.833 44.6232 259.796 45.2497 258.016 46.358C256.236 47.4663 254.775 49.0183 253.776 50.8616C252.723 52.7608 252.057 54.85 251.816 57.0084C251.683 58.1151 251.616 60.2751 251.616 63.4751V103.729H241.07V61.6351C240.896 57.1417 241.395 52.6476 242.55 48.3016C244.031 43.3122 247.156 38.9703 251.416 35.9815C255.064 33.5405 259.361 32.2536 263.75 32.2881C272.328 32.2881 278.728 36.6126 282.95 45.2616C284.708 41.3784 287.424 38.006 290.844 35.4615C294.084 33.2919 297.919 32.183 301.817 32.2881C306.147 32.285 310.38 33.5707 313.977 35.9815C321.088 40.6215 324.644 48.7461 324.644 60.3551L324.631 103.769Z"
        fill="white" />
    <path fill-rule="evenodd" clip-rule="evenodd"
        d="M500.446 103.769H489.899V61.782C489.899 56.4486 488.872 52.3286 486.792 49.5685C485.679 47.9791 484.192 46.6879 482.462 45.809C480.732 44.93 478.812 44.4903 476.872 44.5285C472.428 44.5285 468.957 46.6129 466.459 50.7819C465.255 52.7325 464.486 54.9202 464.205 57.1953C463.99 59.5265 463.901 61.8678 463.939 64.2087V103.769H453.405V62.9287C453.405 57.1953 452.41 52.8974 450.419 50.0352C449.276 48.2771 447.697 46.8461 445.834 45.8827C443.972 44.9194 441.892 44.4567 439.797 44.54C437.702 44.6234 435.664 45.25 433.885 46.3583C432.105 47.4666 430.644 49.0185 429.645 50.8619C428.587 52.7601 427.916 54.8493 427.672 57.0086C427.538 58.1153 427.472 60.2753 427.472 63.4754V103.729H416.938V61.6353C416.758 57.1417 417.257 52.6466 418.418 48.3018C419.889 43.3111 423.011 38.9674 427.272 35.9817C430.92 33.543 435.217 32.2563 439.605 32.2883C448.192 32.2883 454.588 36.6128 458.792 45.2618C460.561 41.3817 463.28 38.0109 466.699 35.4617C469.943 33.2903 473.783 32.1813 477.686 32.2883C482.012 32.2855 486.24 33.5713 489.832 35.9817C496.944 40.6218 500.499 48.7463 500.499 60.3553L500.446 103.769Z"
        fill="white" />
    <path fill-rule="evenodd" clip-rule="evenodd"
        d="M370.511 94.3419C357.404 94.3419 350.777 86.1685 350.777 72.0083H400.378C400.378 48.008 390.778 32.3945 371.164 32.3945C348.697 32.3945 338.577 49.1547 338.577 70.195C338.577 89.7952 349.871 104.235 368.964 104.235C379.871 104.235 384.284 101.569 387.404 99.542C393.699 95.1656 398.031 88.4986 399.471 80.9684H388.044C387.671 85.9952 381.298 94.3419 370.511 94.3419ZM369.604 42.6613C383.498 42.6613 387.911 52.3948 388.564 62.9149H350.777C350.777 52.3548 359.097 42.6213 369.604 42.6213V42.6613Z"
        fill="white" />
    <path fill-rule="evenodd" clip-rule="evenodd"
        d="M514.807 68.2092C514.807 85.7294 524.673 104.063 546.367 104.063C568.061 104.063 577.914 85.7294 577.914 68.2092C577.914 50.689 568.047 32.3555 546.34 32.3555C524.633 32.3555 514.807 50.6757 514.807 68.2092ZM526.62 68.2092C526.62 59.1158 529.993 42.2223 546.367 42.2223C562.741 42.2223 566.101 59.1158 566.101 68.2092C566.101 77.3027 562.727 94.1828 546.367 94.1828C530.007 94.1828 526.62 77.2893 526.62 68.2092Z"
        fill="white" />
    <path fill-rule="evenodd" clip-rule="evenodd"
        d="M643.674 53.6617C643.674 50.2883 641.981 32.3281 617.701 32.3281C604.367 32.3281 591.994 39.0882 591.994 54.0217C591.994 63.3552 598.22 68.1819 607.701 70.5152L620.941 73.7553C630.687 76.222 634.448 78.0487 634.448 83.5021C634.448 91.0355 627.047 94.2755 618.861 94.2755C602.767 94.2755 601.207 85.7021 600.82 80.382H589.78C590.167 88.5688 592.114 104.169 618.994 104.169C634.327 104.169 645.874 95.7022 645.874 81.6887C645.874 72.4619 640.941 67.2619 626.794 63.7552L615.367 60.9018C606.527 58.6884 603.02 57.3951 603.02 51.8084C603.02 43.3683 613.021 42.1949 616.527 42.1949C630.941 42.1949 632.527 49.3417 632.634 53.635L643.674 53.6617Z"
        fill="white" />
    <path
        d="M244.284 160.77C242.726 160.369 241.259 159.671 239.964 158.716L241.804 155.223C242.998 156.043 244.318 156.664 245.711 157.063C247.22 157.518 248.788 157.751 250.364 157.756C254.231 157.756 256.164 156.65 256.164 154.436C256.177 154.104 256.113 153.773 255.976 153.47C255.84 153.167 255.635 152.9 255.377 152.69C254.802 152.234 254.132 151.91 253.417 151.743C252.644 151.543 251.524 151.33 250.084 151.076C248.456 150.845 246.847 150.493 245.271 150.023C244.051 149.635 242.953 148.937 242.084 147.996C241.135 146.888 240.657 145.452 240.751 143.996C240.726 142.946 240.968 141.906 241.453 140.974C241.937 140.041 242.65 139.246 243.524 138.663C245.716 137.229 248.308 136.528 250.924 136.663C252.569 136.665 254.208 136.866 255.804 137.263C257.218 137.573 258.57 138.119 259.804 138.876L257.911 142.343C255.805 141.021 253.356 140.349 250.871 140.409C249.387 140.318 247.906 140.636 246.591 141.329C246.146 141.564 245.773 141.915 245.513 142.345C245.252 142.774 245.113 143.267 245.111 143.77C245.095 144.125 245.161 144.48 245.305 144.806C245.448 145.132 245.664 145.421 245.937 145.65C246.538 146.135 247.24 146.481 247.991 146.663C248.804 146.89 249.951 147.13 251.417 147.41C253.027 147.66 254.617 148.021 256.177 148.49C257.366 148.855 258.437 149.526 259.284 150.436C260.216 151.502 260.694 152.889 260.617 154.303C260.647 155.36 260.403 156.408 259.907 157.342C259.412 158.277 258.683 159.067 257.791 159.636C255.477 161.047 252.79 161.725 250.084 161.583C248.122 161.59 246.169 161.316 244.284 160.77Z"
        fill="white" />
    <path
        d="M269.324 159.956C267.43 158.925 265.861 157.388 264.791 155.516C263.71 153.549 263.144 151.34 263.144 149.096C263.144 146.851 263.71 144.643 264.791 142.676C265.862 140.811 267.432 139.283 269.324 138.262C271.332 137.188 273.581 136.642 275.858 136.676C278.127 136.638 280.367 137.185 282.364 138.262C284.25 139.287 285.815 140.815 286.885 142.676C287.952 144.647 288.512 146.854 288.512 149.096C288.512 151.338 287.952 153.544 286.885 155.516C285.816 157.384 284.252 158.921 282.364 159.956C280.374 161.054 278.131 161.611 275.858 161.569C273.577 161.607 271.325 161.051 269.324 159.956ZM280.071 156.623C281.31 155.903 282.322 154.85 282.991 153.582C283.684 152.188 284.045 150.653 284.045 149.096C284.045 147.539 283.684 146.003 282.991 144.609C282.322 143.349 281.309 142.305 280.071 141.596C278.774 140.905 277.327 140.543 275.858 140.543C274.388 140.543 272.941 140.905 271.644 141.596C270.402 142.307 269.381 143.351 268.698 144.609C267.987 145.998 267.617 147.536 267.617 149.096C267.617 150.656 267.987 152.194 268.698 153.582C269.38 154.849 270.4 155.901 271.644 156.623C272.936 157.331 274.385 157.702 275.858 157.702C277.331 157.702 278.78 157.331 280.071 156.623Z"
        fill="white" />
    <path
        d="M321.831 156.689C320.852 157.469 319.629 157.88 318.378 157.849C317.858 157.883 317.337 157.805 316.849 157.621C316.362 157.437 315.919 157.151 315.551 156.783C314.839 155.936 314.486 154.846 314.564 153.743V140.542H321.551V136.902H314.564V131.569H310.138V136.902H298.911V134.782C298.911 131.929 300.244 130.502 302.911 130.502C304.153 130.493 305.362 130.907 306.338 131.676L307.671 128.316C307.009 127.829 306.263 127.468 305.471 127.249C304.571 127.005 303.643 126.883 302.711 126.889C301.628 126.82 300.542 126.973 299.52 127.338C298.497 127.702 297.56 128.271 296.764 129.009C296.042 129.774 295.484 130.679 295.121 131.666C294.759 132.654 294.601 133.705 294.657 134.756V136.916H290.511V140.556H294.657V161.316H299.071V140.542H310.204V153.876C310.138 154.909 310.283 155.944 310.632 156.919C310.98 157.893 311.525 158.786 312.231 159.543C313.004 160.234 313.906 160.764 314.886 161.103C315.866 161.442 316.903 161.582 317.938 161.516C318.937 161.519 319.93 161.37 320.884 161.076C321.762 160.827 322.579 160.4 323.284 159.823L321.831 156.689Z"
        fill="white" />
    <path
        d="M364.312 136.902L355.191 161.303H350.965L343.925 142.796L336.791 161.303H332.551L323.484 136.902H327.671L334.765 156.329L342.125 136.902H345.858L353.085 156.423L360.352 136.902H364.312Z"
        fill="white" />
    <path
        d="M384.099 139.155C385.04 140.134 385.763 141.3 386.223 142.578C386.682 143.855 386.867 145.215 386.766 146.569V161.302H382.566V158.076C381.798 159.236 380.703 160.141 379.419 160.676C377.88 161.306 376.228 161.611 374.565 161.569C372.216 161.691 369.897 160.994 368.005 159.596C367.214 158.984 366.579 158.194 366.15 157.291C365.722 156.387 365.512 155.395 365.539 154.395C365.506 153.409 365.701 152.428 366.108 151.529C366.515 150.629 367.123 149.836 367.885 149.209C369.459 147.875 371.885 147.262 375.352 147.262H382.339V146.342C382.392 145.537 382.272 144.73 381.987 143.976C381.701 143.222 381.258 142.537 380.686 141.969C379.309 140.865 377.566 140.322 375.805 140.449C374.366 140.448 372.937 140.692 371.579 141.169C370.302 141.583 369.113 142.229 368.072 143.075L366.232 139.769C367.573 138.713 369.102 137.921 370.739 137.435C372.547 136.895 374.425 136.625 376.312 136.635C379.134 136.449 381.921 137.351 384.099 139.155ZM379.672 157.009C380.894 156.271 381.833 155.144 382.339 153.809V150.409H375.525C371.792 150.409 369.912 151.662 369.912 154.182C369.892 154.745 370.011 155.304 370.26 155.809C370.509 156.314 370.88 156.749 371.339 157.076C372.522 157.853 373.925 158.228 375.339 158.142C376.861 158.178 378.363 157.785 379.672 157.009Z"
        fill="white" />
    <path
        d="M401.299 137.783C403.018 137.003 404.892 136.624 406.779 136.677V141.01C406.442 140.992 406.104 140.992 405.766 141.01C404.728 140.953 403.69 141.115 402.718 141.485C401.747 141.854 400.863 142.424 400.126 143.157C398.668 144.84 397.931 147.028 398.073 149.25V161.41H393.659V137.01H397.899V141.01C398.659 139.599 399.851 138.468 401.299 137.783Z"
        fill="white" />
    <path
        d="M433.233 150.569H413.446C413.666 152.603 414.682 154.468 416.273 155.756C417.99 157.084 420.116 157.773 422.286 157.702C423.604 157.756 424.917 157.52 426.133 157.011C427.35 156.502 428.44 155.732 429.326 154.756L431.766 157.609C430.651 158.91 429.238 159.921 427.646 160.556C425.657 161.312 423.533 161.652 421.406 161.553C419.28 161.454 417.197 160.92 415.286 159.982C413.348 158.979 411.742 157.437 410.659 155.542C409.562 153.576 409.001 151.355 409.033 149.102C409.003 146.868 409.55 144.664 410.619 142.702C411.632 140.841 413.147 139.303 414.993 138.262C416.91 137.19 419.076 136.643 421.273 136.676C423.457 136.639 425.611 137.187 427.513 138.262C429.328 139.311 430.812 140.85 431.793 142.702C432.844 144.717 433.371 146.964 433.326 149.236C433.322 149.682 433.29 150.127 433.233 150.569ZM415.899 142.329C414.465 143.649 413.572 145.454 413.393 147.396H429.046C428.858 145.465 427.966 143.67 426.539 142.356C425.083 141.035 423.171 140.332 421.206 140.396C419.272 140.36 417.396 141.055 415.953 142.342L415.899 142.329Z"
        fill="white" />
    <path
        d="M181.003 55.5017V9.00779H134.456C122.095 3.34522 108.658 0.414062 95.0617 0.414062C81.4654 0.414062 68.0289 3.34522 55.6679 9.00779H9.14739V55.5017C3.48798 67.8659 0.558594 81.3042 0.558594 94.9021C0.558594 108.5 3.48798 121.938 9.14739 134.303V180.796H55.6679C68.0326 186.463 81.4738 189.396 95.075 189.396C108.676 189.396 122.118 186.463 134.482 180.796H181.003V134.343C186.662 121.978 189.592 108.54 189.592 94.9421C189.592 81.3442 186.662 67.9059 181.003 55.5417V55.5017ZM153.296 153.143C139.821 166.62 122.09 175.009 103.124 176.879C84.1577 178.749 65.1299 173.984 49.2828 163.398C33.4356 152.811 21.7497 137.057 16.2161 118.819C10.6826 100.582 11.6438 80.9908 18.936 63.3829C26.2283 45.7751 39.4003 31.2406 56.2078 22.2559C73.0152 13.2713 92.4179 10.3925 111.11 14.11C129.802 17.8276 146.627 27.9115 158.717 42.6435C170.808 57.3755 177.416 75.844 177.416 94.9021C177.444 105.722 175.327 116.441 171.187 126.438C167.047 136.434 160.966 145.511 153.296 153.143Z"
        fill="white" />
</svg>