<svg aria-hidden="true" style="position: absolute; width: 0; height: 0; overflow: hidden;" version="1.1"
    xmlns="http://www.w3.org/2000/svg" xmlns:xlink="http://www.w3.org/1999/xlink">
    <defs>
        <symbol id="memos" viewBox="0 0 109 32">
            <path fill="#fff" style="fill: var(--color1, #fff)"
                d="M54.675 17.477h-1.774v-7.072c0-0.907-0.175-1.593-0.525-2.057-0.365-0.516-0.959-0.849-1.632-0.849-0.017 0-0.034 0-0.051 0.001l0.002-0c-0.749 0-1.333 0.351-1.754 1.053-0.194 0.309-0.328 0.675-0.378 1.067l-0.001 0.013c-0.030 0.301-0.046 0.651-0.046 1.004 0 0.062 0.001 0.124 0.002 0.186l-0-0.009v6.663h-1.774v-6.878c0-0.966-0.168-1.69-0.503-2.172-0.369-0.562-0.996-0.927-1.708-0.927-0.769 0-1.439 0.427-1.785 1.056l-0.005 0.011c-0.169 0.299-0.286 0.649-0.329 1.022l-0.001 0.013c-0.022 0.186-0.034 0.55-0.034 1.089v6.78h-1.776v-7.090c-0.004-0.088-0.006-0.19-0.006-0.294 0-0.694 0.093-1.366 0.267-2.005l-0.012 0.053c0.261-0.86 0.787-1.575 1.481-2.067l0.012-0.008c0.575-0.39 1.285-0.622 2.048-0.622 0.010 0 0.020 0 0.030 0h-0.002c1.445 0 2.523 0.728 3.234 2.185 0.307-0.668 0.759-1.223 1.319-1.643l0.011-0.008c0.495-0.336 1.106-0.536 1.763-0.536 0.030 0 0.060 0 0.090 0.001l-0.004-0c0.001 0 0.002 0 0.002 0 0.763 0 1.471 0.232 2.058 0.63l-0.013-0.008c1.198 0.781 1.797 2.15 1.797 4.105l-0.002 7.312zM84.286 17.477h-1.776v-7.072c0-0.898-0.173-1.592-0.523-2.057-0.365-0.516-0.959-0.849-1.631-0.849-0.014 0-0.028 0-0.041 0l0.002-0c-0.748 0-1.333 0.351-1.754 1.053-0.194 0.309-0.328 0.675-0.378 1.067l-0.001 0.013c-0.029 0.301-0.046 0.651-0.046 1.004 0 0.062 0.001 0.124 0.002 0.186l-0-0.009v6.663h-1.774v-6.878c0-0.966-0.168-1.69-0.503-2.172-0.369-0.561-0.996-0.927-1.708-0.927-0.769 0-1.439 0.426-1.785 1.056l-0.005 0.011c-0.17 0.299-0.288 0.649-0.331 1.022l-0.001 0.013c-0.023 0.186-0.034 0.55-0.034 1.089v6.78h-1.774v-7.090c-0.004-0.090-0.006-0.195-0.006-0.301 0-0.691 0.093-1.361 0.268-1.997l-0.012 0.053c0.259-0.861 0.785-1.575 1.479-2.067l0.012-0.008c0.576-0.39 1.286-0.622 2.050-0.622 0.009 0 0.019 0 0.028 0h-0.001c1.446 0 2.523 0.728 3.231 2.185 0.309-0.667 0.761-1.222 1.321-1.643l0.011-0.008c0.495-0.336 1.106-0.536 1.764-0.536 0.031 0 0.061 0 0.091 0.001l-0.004-0c0.001 0 0.001 0 0.002 0 0.762 0 1.47 0.232 2.056 0.63l-0.013-0.008c1.198 0.781 1.797 2.15 1.797 4.105l-0.009 7.312zM62.402 15.889c-2.208 0-3.324-1.377-3.324-3.762h8.354c0-4.042-1.617-6.672-4.92-6.672-3.784 0-5.488 2.823-5.488 6.366 0 3.301 1.902 5.733 5.118 5.733 1.837 0 2.58-0.449 3.106-0.79 1.039-0.729 1.777-1.825 2.027-3.097l0.005-0.031h-1.925c-0.063 0.847-1.136 2.252-2.953 2.252zM62.249 7.185c2.34 0 3.083 1.639 3.193 3.411h-6.364c0-1.779 1.401-3.418 3.171-3.418v0.007zM86.704 11.488c0 2.951 1.662 6.038 5.315 6.038s5.313-3.088 5.313-6.039-1.662-6.039-5.318-6.039-5.311 3.085-5.311 6.039zM88.694 11.488c0-1.532 0.568-4.377 3.326-4.377s3.324 2.845 3.324 4.377c0 1.532-0.568 4.375-3.324 4.375s-3.326-2.845-3.326-4.375zM108.408 9.038c0-0.568-0.285-3.593-4.374-3.593-2.246 0-4.33 1.139-4.33 3.654 0 1.572 1.049 2.385 2.645 2.778l2.23 0.546c1.641 0.415 2.275 0.723 2.275 1.642 0 1.269-1.246 1.814-2.625 1.814-2.711 0-2.973-1.444-3.038-2.34h-1.859c0.065 1.379 0.393 4.006 4.92 4.006 2.582 0 4.527-1.426 4.527-3.786 0-1.554-0.831-2.43-3.213-3.020l-1.925-0.48c-1.489-0.373-2.079-0.591-2.079-1.532 0-1.421 1.684-1.619 2.275-1.619 2.428 0 2.695 1.204 2.713 1.927l1.859 0.005z">
            </path>
            <path fill="#fff" style="fill: var(--color1, #fff)"
                d="M41.143 27.077c-0.278-0.073-0.521-0.192-0.733-0.35l0.006 0.004 0.31-0.588c0.189 0.131 0.407 0.237 0.642 0.306l0.016 0.004c0.234 0.073 0.504 0.116 0.783 0.117h0c0.651 0 0.977-0.186 0.977-0.559 0-0.004 0-0.009 0-0.014 0-0.113-0.051-0.213-0.132-0.279l-0.001-0c-0.093-0.074-0.203-0.129-0.324-0.158l-0.006-0.001c-0.13-0.034-0.319-0.070-0.561-0.112-0.311-0.045-0.585-0.107-0.85-0.188l0.039 0.010c-0.213-0.069-0.394-0.187-0.536-0.341l-0.001-0.001c-0.141-0.164-0.226-0.378-0.226-0.613 0-0.021 0.001-0.043 0.002-0.064l-0 0.003c-0-0.007-0-0.016-0-0.025 0-0.177 0.044-0.344 0.121-0.49l-0.003 0.006c0.084-0.159 0.202-0.29 0.345-0.387l0.004-0.002c0.321-0.213 0.715-0.34 1.139-0.34 0.038 0 0.075 0.001 0.112 0.003l-0.005-0c0.292 0 0.575 0.037 0.846 0.106l-0.024-0.005c0.238 0.052 0.466 0.144 0.674 0.272l-0.319 0.584c-0.322-0.205-0.714-0.326-1.134-0.326-0.018 0-0.036 0-0.054 0.001l0.003-0c-0.025-0.002-0.054-0.003-0.084-0.003-0.233 0-0.452 0.058-0.644 0.161l0.007-0.004c-0.149 0.080-0.248 0.234-0.249 0.411v0c-0 0.005-0 0.012-0 0.018 0 0.12 0.054 0.227 0.139 0.298l0.001 0c0.097 0.079 0.213 0.138 0.34 0.169l0.006 0.001c0.137 0.038 0.33 0.079 0.577 0.126 0.271 0.042 0.539 0.103 0.802 0.182 0.207 0.065 0.384 0.178 0.523 0.327l0.001 0.001c0.14 0.16 0.226 0.371 0.226 0.601 0 0.018-0.001 0.035-0.001 0.052l0-0.002c0 0.009 0 0.019 0 0.030 0 0.363-0.188 0.683-0.472 0.866l-0.004 0.002c-0.336 0.208-0.743 0.331-1.179 0.331-0.042 0-0.083-0.001-0.125-0.003l0.006 0c-0.004 0-0.008 0-0.012 0-0.344 0-0.676-0.050-0.989-0.143l0.025 0.006zM45.36 26.94c-0.321-0.177-0.58-0.431-0.758-0.738l-0.005-0.009c-0.175-0.312-0.278-0.685-0.278-1.081s0.103-0.769 0.283-1.093l-0.006 0.011c0.183-0.315 0.442-0.568 0.753-0.738l0.010-0.005c0.309-0.168 0.676-0.267 1.067-0.267 0.012 0 0.024 0 0.035 0l-0.002-0c0.011-0 0.024-0 0.037-0 0.388 0 0.753 0.099 1.070 0.273l-0.012-0.006c0.32 0.176 0.578 0.429 0.756 0.734l0.005 0.009c0.172 0.313 0.274 0.685 0.274 1.081s-0.101 0.769-0.28 1.093l0.006-0.012c-0.183 0.316-0.441 0.57-0.751 0.743l-0.010 0.005c-0.304 0.171-0.668 0.272-1.056 0.272-0.014 0-0.028-0-0.042-0l0.002 0c-0.011 0-0.024 0-0.037 0-0.39 0-0.757-0.101-1.075-0.278l0.011 0.006zM47.17 26.379c0.209-0.123 0.377-0.297 0.488-0.505l0.003-0.007c0.112-0.22 0.178-0.48 0.178-0.756s-0.066-0.535-0.182-0.765l0.004 0.010c-0.115-0.214-0.283-0.386-0.486-0.504l-0.006-0.003c-0.205-0.112-0.45-0.177-0.71-0.177s-0.504 0.066-0.718 0.181l0.008-0.004c-0.21 0.122-0.379 0.294-0.493 0.501l-0.003 0.007c-0.115 0.22-0.182 0.48-0.182 0.756s0.067 0.536 0.187 0.765l-0.004-0.009c0.117 0.215 0.286 0.389 0.49 0.509l0.006 0.003c0.205 0.114 0.449 0.182 0.71 0.182s0.505-0.067 0.717-0.186l-0.008 0.004zM54.203 26.39c-0.152 0.122-0.347 0.196-0.559 0.196-0.008 0-0.016-0-0.023-0l0.001 0c-0.012 0.001-0.026 0.001-0.040 0.001-0.17 0-0.324-0.069-0.436-0.181v0c-0.105-0.124-0.168-0.285-0.168-0.461 0-0.018 0.001-0.036 0.002-0.053l-0 0.002v-2.223h1.177v-0.613h-1.177v-0.898h-0.745v0.898h-1.891v-0.357c0-0.48 0.224-0.721 0.674-0.721 0.002 0 0.004-0 0.007-0 0.216 0 0.415 0.075 0.572 0.199l-0.002-0.001 0.224-0.566c-0.106-0.078-0.229-0.14-0.363-0.178l-0.008-0.002c-0.152-0.041-0.308-0.062-0.465-0.061-0.026-0.002-0.055-0.003-0.085-0.003-0.354 0-0.677 0.137-0.917 0.36l0.001-0.001c-0.221 0.234-0.357 0.551-0.357 0.899 0 0.024 0.001 0.048 0.002 0.072l-0-0.003v0.364h-0.698v0.613h0.698v3.496h0.743v-3.499h1.875v2.246c-0.002 0.025-0.003 0.053-0.003 0.082 0 0.338 0.131 0.645 0.345 0.873l-0.001-0.001c0.232 0.208 0.54 0.335 0.877 0.335 0.029 0 0.059-0.001 0.088-0.003l-0.004 0c0.001 0 0.003 0 0.005 0 0.175 0 0.345-0.027 0.503-0.077l-0.012 0.003c0.156-0.045 0.291-0.117 0.406-0.213l-0.002 0.002-0.245-0.528zM61.358 23.057l-1.536 4.11h-0.712l-1.186-3.117-1.202 3.117h-0.714l-1.527-4.11h0.705l1.195 3.272 1.24-3.272h0.629l1.217 3.288 1.224-3.288h0.667zM64.69 23.437c0.281 0.292 0.454 0.689 0.454 1.127 0 0.043-0.002 0.085-0.005 0.127l0-0.006v2.481h-0.707v-0.543c-0.13 0.194-0.31 0.345-0.522 0.435l-0.008 0.003c-0.227 0.096-0.49 0.151-0.767 0.151-0.018 0-0.036-0-0.053-0.001l0.003 0c-0.027 0.001-0.058 0.002-0.089 0.002-0.383 0-0.736-0.126-1.021-0.338l0.005 0.003c-0.254-0.198-0.416-0.504-0.416-0.848 0-0.010 0-0.020 0-0.029l-0 0.001c-0-0.011-0.001-0.024-0.001-0.036 0-0.336 0.153-0.637 0.394-0.835l0.002-0.001c0.265-0.225 0.674-0.328 1.258-0.328h1.177v-0.155c0.001-0.019 0.002-0.040 0.002-0.062 0-0.264-0.107-0.502-0.28-0.674l-0-0c-0.2-0.161-0.457-0.259-0.737-0.259-0.030 0-0.059 0.001-0.089 0.003l0.004-0c-0 0-0.001 0-0.001 0-0.255 0-0.499 0.044-0.726 0.126l0.015-0.005c-0.227 0.075-0.423 0.184-0.594 0.324l0.003-0.003-0.31-0.557c0.215-0.171 0.468-0.305 0.743-0.389l0.016-0.004c0.276-0.086 0.593-0.135 0.922-0.135 0.006 0 0.012 0 0.018 0h-0.001c0.037-0.003 0.079-0.004 0.122-0.004 0.453 0 0.869 0.162 1.192 0.431l-0.003-0.002zM63.945 26.444c0.204-0.125 0.361-0.311 0.447-0.532l0.002-0.007v-0.573h-1.148c-0.629 0-0.945 0.211-0.945 0.635-0 0.006-0 0.013-0 0.020 0 0.192 0.094 0.362 0.239 0.466l0.002 0.001c0.171 0.114 0.381 0.182 0.607 0.182 0.023 0 0.047-0.001 0.070-0.002l-0.003 0c0.010 0 0.021 0 0.032 0 0.257 0 0.498-0.071 0.704-0.195l-0.006 0.003zM67.587 23.206c0.254-0.118 0.551-0.187 0.865-0.187 0.020 0 0.041 0 0.061 0.001l-0.003-0v0.73c-0.025-0.001-0.055-0.002-0.085-0.002s-0.060 0.001-0.089 0.002l0.004-0c-0.020-0.001-0.044-0.002-0.069-0.002-0.344 0-0.655 0.139-0.881 0.364l0-0c-0.217 0.249-0.349 0.577-0.349 0.935 0 0.032 0.001 0.064 0.003 0.096l-0-0.004v2.048h-0.743v-4.109h0.714v0.674c0.13-0.238 0.327-0.425 0.565-0.54l0.008-0.003zM72.966 25.359h-3.333c0.039 0.354 0.216 0.661 0.474 0.872l0.002 0.002c0.263 0.205 0.598 0.329 0.962 0.329 0.018 0 0.036-0 0.054-0.001l-0.003 0c0.019 0.001 0.040 0.001 0.062 0.001 0.445 0 0.845-0.191 1.122-0.496l0.001-0.001 0.411 0.48c-0.185 0.215-0.418 0.384-0.682 0.492l-0.012 0.004c-0.276 0.108-0.595 0.171-0.93 0.171-0.419 0-0.816-0.099-1.167-0.274l0.015 0.007c-0.329-0.173-0.594-0.428-0.774-0.739l-0.005-0.009c-0.172-0.304-0.274-0.667-0.274-1.054 0-0.011 0-0.022 0-0.032l-0 0.002c-0-0.009-0-0.019-0-0.029 0-0.385 0.099-0.746 0.273-1.060l-0.006 0.011c0.174-0.315 0.425-0.57 0.727-0.743l0.009-0.005c0.295-0.168 0.649-0.267 1.026-0.267 0.011 0 0.022 0 0.033 0l-0.002-0c0.010-0 0.022-0 0.035-0 0.374 0 0.724 0.099 1.026 0.273l-0.010-0.005c0.307 0.179 0.552 0.433 0.716 0.738l0.005 0.010c0.163 0.306 0.259 0.67 0.259 1.055 0 0.016-0 0.032-0.001 0.048l0-0.002c-0.001 0.075-0.006 0.15-0.016 0.224zM70.046 23.971c-0.234 0.216-0.39 0.514-0.422 0.848l-0 0.005h2.636c-0.034-0.338-0.189-0.634-0.421-0.848l-0.001-0.001c-0.225-0.205-0.526-0.331-0.857-0.331-0.015 0-0.029 0-0.044 0.001l0.002-0c-0.007-0-0.016-0-0.024-0-0.331 0-0.633 0.124-0.862 0.329l0.001-0.001-0.009-0.002zM30.485 9.348v-7.831h-7.84c-1.947-0.914-4.229-1.447-6.635-1.447s-4.688 0.533-6.733 1.488l0.098-0.041h-7.835v7.831c-0.913 1.948-1.447 4.229-1.447 6.636s0.533 4.688 1.488 6.734l-0.041-0.098v7.83h7.835c1.948 0.915 4.23 1.448 6.637 1.448s4.689-0.534 6.735-1.49l-0.098 0.041h7.835v-7.824c0.913-1.948 1.446-4.23 1.446-6.636s-0.533-4.688-1.487-6.734l0.041 0.098v-0.007zM25.818 25.793c-2.511 2.511-5.98 4.064-9.811 4.064-2.873 0-5.542-0.873-7.756-2.368l0.049 0.031c-3.74-2.524-6.167-6.747-6.167-11.536 0-7.662 6.211-13.874 13.874-13.874s13.873 6.211 13.874 13.873v0c0 0.010 0 0.023 0 0.035 0 3.819-1.553 7.276-4.062 9.773l-0.001 0.001z">
            </path>
        </symbol>
        <symbol id="fa-dribbble" viewBox="0 0 32 32">
            <path fill="#fff"
                d="M20.572 27.678c-0.562-3.228-1.5-6.564-2.814-10.006h-0.040l-0.040 0.020c-0.214 0.080-0.5 0.196-0.864 0.342-0.36 0.134-1.038 0.462-2.028 0.984-0.992 0.51-1.908 1.060-2.752 1.648-0.844 0.576-1.72 1.34-2.632 2.29-0.91 0.952-1.6 1.942-2.070 2.974l-0.3-0.22c2.464 2.008 5.262 3.012 8.396 3.012 1.768 0 3.482-0.348 5.144-1.044zM16.854 15.48c-0.28-0.656-0.636-1.4-1.064-2.228-4.164 1.244-8.672 1.868-13.52 1.868-0.014 0.094-0.020 0.234-0.020 0.42 0 1.662 0.294 3.25 0.884 4.762 0.59 1.5 1.42 2.846 2.492 4.040 0.722-1.267 1.54-2.361 2.476-3.343l-0.006 0.007c0.992-1.046 1.948-1.882 2.872-2.512s1.796-1.172 2.612-1.626c0.83-0.456 1.5-0.778 2.010-0.966l0.742-0.26 0.26-0.060c0.122-0.040 0.21-0.074 0.262-0.1zM14.706 11.224c-1.639-2.929-3.261-5.41-5.031-7.774l0.129 0.18c-1.88 0.895-3.453 2.159-4.679 3.709l-0.021 0.027c-1.226 1.525-2.124 3.366-2.557 5.38l-0.015 0.085c4.044 0 8.102-0.536 12.174-1.608zM28.446 17.632c-2.812-0.804-5.552-0.998-8.216-0.582 1.164 3.2 2.022 6.34 2.572 9.42 1.49-1.014 2.729-2.278 3.685-3.743l0.031-0.051c0.99-1.54 1.634-3.222 1.928-5.044zM12.274 2.746c-0.012 0-0.026 0.008-0.040 0.020 0.014-0.012 0.028-0.020 0.040-0.020zM24.128 5.66c-2.48-2.198-5.378-3.296-8.7-3.296-1.018 0-2.056 0.128-3.114 0.382 1.718 2.229 3.355 4.739 4.792 7.374l0.15 0.3c1.025-0.386 1.886-0.791 2.709-1.254l-0.097 0.050c0.818-0.47 1.46-0.884 1.928-1.246 0.484-0.362 0.926-0.744 1.326-1.146 0.402-0.4 0.65-0.67 0.744-0.804 0.108-0.146 0.194-0.266 0.26-0.36zM28.608 15.402c-0.040-3.106-1.040-5.852-2.994-8.236l-0.020 0.020-0.382 0.502c-0.134 0.16-0.428 0.456-0.884 0.884-0.436 0.423-0.901 0.824-1.388 1.198l-0.038 0.028c-0.496 0.374-1.166 0.81-2.010 1.306-0.83 0.48-1.706 0.91-2.63 1.286 0.334 0.71 0.628 1.346 0.884 1.908 0.026 0.066 0.066 0.18 0.12 0.34 0.066 0.162 0.12 0.276 0.16 0.342 0.482-0.066 0.978-0.114 1.488-0.14 0.52-0.026 1.016-0.040 1.486-0.040 0.468 0 0.93 0.014 1.386 0.040 0.454 0.014 0.884 0.040 1.286 0.080 0.4 0.028 0.776 0.060 1.124 0.1 0.362 0.040 0.684 0.088 0.964 0.14 0.296 0.040 0.544 0.080 0.744 0.122 0.2 0.026 0.368 0.054 0.502 0.080l0.2 0.040zM28.788 7.808c1.301 2.18 2.070 4.808 2.070 7.615 0 0.042-0 0.085-0.001 0.127l0-0.007c0 2.8-0.69 5.384-2.070 7.754-1.375 2.341-3.278 4.237-5.553 5.565l-0.073 0.039c-2.18 1.301-4.808 2.070-7.615 2.070-0.042 0-0.083-0-0.125-0l0.006 0c-2.8 0-5.384-0.69-7.754-2.070-2.338-1.371-4.233-3.266-5.565-5.532l-0.039-0.072c-1.301-2.189-2.070-4.827-2.070-7.644 0-0.039 0-0.077 0-0.116l-0 0.006c0-2.8 0.69-5.378 2.070-7.736 1.367-2.347 3.263-4.249 5.532-5.585l0.072-0.039c2.189-1.301 4.827-2.070 7.644-2.070 0.039 0 0.077 0 0.116 0l-0.006-0c2.8 0 5.378 0.69 7.734 2.070 2.351 1.371 4.255 3.274 5.587 5.552l0.039 0.072z">
            </path>
        </symbol>
        <symbol id="fa-behance" viewBox="0 0 48 32">
            <path fill="#fff"
                d="M42.43 2.69h-11.733v2.846h11.733v-2.846zM36.64 12.471c-1.376 0-2.494 0.405-3.351 1.216-0.857 0.795-1.333 1.883-1.424 3.259h9.367c-0.274-2.985-1.806-4.475-4.592-4.475zM37.008 25.902c0.965 0 1.897-0.245 2.8-0.736 0.903-0.489 1.486-1.154 1.746-1.998h5.074c-1.531 4.699-4.8 7.049-9.806 7.049-3.273 0-5.883-1.010-7.829-3.031-1.927-2.021-2.891-4.677-2.891-7.966 0-3.184 0.994-5.824 2.985-7.922 2.005-2.112 4.583-3.168 7.737-3.168 2.112 0 3.947 0.521 5.509 1.561 1.535 1.007 2.74 2.403 3.489 4.050l0.024 0.060c0.782 1.698 1.17 3.598 1.17 5.694 0 0.261-0.014 0.619-0.046 1.079h-15.106c0 1.701 0.434 3.017 1.307 3.95 0.889 0.919 2.167 1.378 3.835 1.378zM6.357 24.752h6.798c3.136 0 4.706-1.278 4.706-3.833 0-2.754-1.525-4.133-4.571-4.133h-6.928v7.966zM6.357 12.423h6.453c1.193 0 2.135-0.274 2.823-0.825 0.704-0.567 1.056-1.44 1.056-2.617 0-2.203-1.454-3.307-4.361-3.307h-5.968v6.75zM0 0.738h13.639c1.33 0 2.517 0.107 3.557 0.32 1.042 0.215 2.007 0.583 2.894 1.104 0.903 0.503 1.591 1.239 2.066 2.203 0.489 0.965 0.736 2.142 0.736 3.536 0 2.77-1.317 4.782-3.95 6.037 1.744 0.491 3.063 1.371 3.947 2.642 0.889 1.269 1.333 2.83 1.333 4.683 0 1.147-0.192 2.194-0.574 3.145-0.366 0.933-0.873 1.721-1.515 2.363-0.64 0.648-1.382 1.193-2.201 1.61l-0.048 0.022c-0.802 0.416-1.732 0.749-2.709 0.95l-0.070 0.012c-0.978 0.199-2.005 0.299-3.077 0.299h-14.027v-28.928z">
            </path>
        </symbol>
        <symbol id="fa-angle-right" viewBox="0 0 11 17">
            <path fill="#fff"
                d="M9.867 7.972a.53.53 0 0 1 0 .77l-7.801 7.802a.53.53 0 0 1-.77 0l-.837-.838a.53.53 0 0 1 0-.77l6.579-6.579-6.58-6.58a.53.53 0 0 1 0-.77l.838-.836a.53.53 0 0 1 .77 0l7.801 7.801Z" />
        </symbol>
        <symbol id="fa-phone" viewBox="0 0 15 15">
            <path fill="#fff"
                d="M14.568 11.227c0 .18-.034.418-.1.713a4.008 4.008 0 0 1-.212.683c-.14.335-.549.69-1.225 1.065-.63.341-1.252.512-1.869.512-.18 0-.358-.01-.532-.03a4.96 4.96 0 0 1-.582-.13l-.473-.141c-.1-.04-.284-.11-.552-.211-.268-.1-.432-.161-.492-.181a9.1 9.1 0 0 1-1.758-.834c-.85-.529-1.734-1.252-2.652-2.17-.917-.917-1.64-1.8-2.17-2.651a9.097 9.097 0 0 1-.833-1.758 32.424 32.424 0 0 0-.392-1.045c-.033-.107-.08-.264-.14-.472a4.962 4.962 0 0 1-.131-.582 4.64 4.64 0 0 1-.03-.533c0-.616.17-1.239.512-1.868.375-.676.73-1.085 1.065-1.226a4.01 4.01 0 0 1 .683-.21c.294-.067.532-.1.713-.1.094 0 .164.01.211.03.12.04.298.294.532.763.074.127.174.308.302.542l.351.643c.107.187.211.365.312.532.02.027.077.11.17.251.1.141.174.262.221.362.047.094.07.187.07.281 0 .134-.096.302-.29.502-.188.201-.396.385-.623.553a6.856 6.856 0 0 0-.623.532c-.188.188-.281.342-.281.462 0 .06.016.138.05.231.033.087.06.154.08.201l.14.241c.074.114.115.178.121.191.51.918 1.092 1.704 1.748 2.36.656.657 1.443 1.24 2.36 1.748.014.007.078.047.191.121.114.067.195.114.242.14.046.02.113.047.2.081.094.033.171.05.231.05.121 0 .275-.094.462-.281.188-.194.365-.402.533-.623.167-.228.351-.435.552-.623.201-.194.369-.29.502-.29.094 0 .188.023.282.07.1.046.22.12.361.22.141.094.225.151.252.171.167.1.344.204.532.312.194.107.408.224.643.351.234.127.415.228.542.301.469.235.723.412.764.533.02.047.03.117.03.21Z" />
        </symbol>
        <symbol id="fa-envelope" viewBox="0 0 19 15">
            <path fill="#fff"
                d="M18.5 4.903v7.976c0 .441-.157.82-.472 1.135a1.548 1.548 0 0 1-1.135.472H2.107c-.442 0-.82-.158-1.135-.472A1.548 1.548 0 0 1 .5 12.879V4.903c.295.328.633.62 1.015.874 2.424 1.647 4.088 2.802 4.992 3.465.381.282.69.503.924.663.24.154.559.315.954.482.395.161.763.242 1.105.242h.02c.342 0 .71-.08 1.105-.242.395-.167.71-.328.944-.482.241-.16.553-.381.934-.663 1.139-.823 2.806-1.978 5.002-3.465a5.54 5.54 0 0 0 1.005-.874Zm0-2.953c0 .529-.164 1.035-.492 1.517a4.776 4.776 0 0 1-1.226 1.235 7725.73 7725.73 0 0 0-4.7 3.265c-.068.047-.212.15-.432.311-.215.154-.396.281-.543.382-.14.094-.315.2-.522.321-.201.12-.392.211-.573.271-.18.06-.348.09-.502.09h-.02c-.154 0-.321-.03-.502-.09s-.375-.15-.583-.27c-.2-.121-.375-.228-.522-.322-.14-.1-.322-.228-.543-.382a20.75 20.75 0 0 0-.421-.311 386.97 386.97 0 0 0-2.632-1.828 600.334 600.334 0 0 1-2.06-1.437c-.414-.281-.806-.666-1.175-1.155C.684 3.052.5 2.593.5 2.171c0-.522.137-.958.412-1.306.281-.348.68-.522 1.195-.522h14.786c.435 0 .81.157 1.125.472.321.315.482.693.482 1.135Z" />
        </symbol>
        <symbol id="fa-building" viewBox="0 0 15 19">
            <path fill="#fff"
                d="M4.282 13.95v.643a.317.317 0 0 1-.1.23.3.3 0 0 1-.221.091h-.643a.335.335 0 0 1-.231-.09.335.335 0 0 1-.09-.231v-.643a.3.3 0 0 1 .09-.221.317.317 0 0 1 .23-.1h.644c.087 0 .16.033.22.1.067.06.101.134.101.221Zm0-2.571v.642a.318.318 0 0 1-.1.231.3.3 0 0 1-.221.09h-.643a.335.335 0 0 1-.231-.09.335.335 0 0 1-.09-.23v-.643a.3.3 0 0 1 .09-.221.318.318 0 0 1 .23-.1h.644c.087 0 .16.033.22.1.067.06.101.133.101.22Zm2.571 0v.642a.318.318 0 0 1-.1.231.3.3 0 0 1-.221.09h-.643a.335.335 0 0 1-.23-.09.335.335 0 0 1-.091-.23v-.643a.3.3 0 0 1 .09-.221.318.318 0 0 1 .231-.1h.643c.087 0 .16.033.22.1.068.06.101.133.101.22ZM4.282 8.806v.643a.318.318 0 0 1-.1.231.3.3 0 0 1-.221.09h-.643a.335.335 0 0 1-.231-.09.335.335 0 0 1-.09-.231v-.643a.3.3 0 0 1 .09-.22.318.318 0 0 1 .23-.101h.644c.087 0 .16.033.22.1.067.06.101.134.101.221Zm7.714 5.143v.643a.317.317 0 0 1-.1.23.3.3 0 0 1-.221.091h-.643a.335.335 0 0 1-.231-.09.335.335 0 0 1-.09-.231v-.643a.3.3 0 0 1 .09-.221.318.318 0 0 1 .23-.1h.644c.087 0 .16.033.22.1.068.06.101.134.101.221Zm-2.571-2.571v.642a.318.318 0 0 1-.1.231.3.3 0 0 1-.222.09h-.642a.335.335 0 0 1-.232-.09.335.335 0 0 1-.09-.23v-.643a.3.3 0 0 1 .09-.221.318.318 0 0 1 .232-.1h.642c.087 0 .161.033.221.1.067.06.1.133.1.22ZM6.853 8.806v.643a.318.318 0 0 1-.1.231.3.3 0 0 1-.221.09h-.643a.335.335 0 0 1-.23-.09.335.335 0 0 1-.091-.231v-.643a.3.3 0 0 1 .09-.22.318.318 0 0 1 .231-.101h.643c.087 0 .16.033.22.1.068.06.101.134.101.221ZM4.282 6.236v.643a.318.318 0 0 1-.1.23.3.3 0 0 1-.221.091h-.643a.335.335 0 0 1-.231-.09.335.335 0 0 1-.09-.231v-.643a.3.3 0 0 1 .09-.221.318.318 0 0 1 .23-.1h.644c.087 0 .16.033.22.1.067.06.101.134.101.22Zm7.714 5.143v.642a.317.317 0 0 1-.1.231.3.3 0 0 1-.221.09h-.643a.335.335 0 0 1-.231-.09.336.336 0 0 1-.09-.23v-.643c0-.088.03-.161.09-.221a.318.318 0 0 1 .23-.1h.644c.087 0 .16.033.22.1.068.06.101.133.101.22ZM9.425 8.806v.643a.318.318 0 0 1-.1.231.3.3 0 0 1-.222.09h-.642a.335.335 0 0 1-.232-.09.335.335 0 0 1-.09-.231v-.643a.3.3 0 0 1 .09-.22.318.318 0 0 1 .232-.101h.642c.087 0 .161.033.221.1.067.06.1.134.1.221ZM6.853 6.236v.643a.318.318 0 0 1-.1.23.3.3 0 0 1-.221.091h-.643a.335.335 0 0 1-.23-.09.335.335 0 0 1-.091-.231v-.643a.3.3 0 0 1 .09-.221.318.318 0 0 1 .231-.1h.643c.087 0 .16.033.22.1.068.06.101.134.101.22ZM4.282 3.664v.643a.318.318 0 0 1-.1.231.3.3 0 0 1-.221.09h-.643a.335.335 0 0 1-.231-.09.335.335 0 0 1-.09-.23v-.644a.3.3 0 0 1 .09-.22.318.318 0 0 1 .23-.101h.644c.087 0 .16.033.22.1.067.06.101.134.101.221Zm7.714 5.143v.643a.317.317 0 0 1-.1.231.3.3 0 0 1-.221.09h-.643a.335.335 0 0 1-.231-.09.336.336 0 0 1-.09-.231v-.643a.3.3 0 0 1 .09-.22.318.318 0 0 1 .23-.101h.644c.087 0 .16.033.22.1.068.06.101.134.101.221ZM9.425 6.236v.643a.318.318 0 0 1-.1.23.3.3 0 0 1-.222.091h-.642a.335.335 0 0 1-.232-.09.335.335 0 0 1-.09-.231v-.643a.3.3 0 0 1 .09-.221.318.318 0 0 1 .232-.1h.642c.087 0 .161.033.221.1.067.06.1.134.1.22ZM6.853 3.664v.643a.318.318 0 0 1-.1.231.3.3 0 0 1-.221.09h-.643a.335.335 0 0 1-.23-.09.335.335 0 0 1-.091-.23v-.644a.3.3 0 0 1 .09-.22.318.318 0 0 1 .231-.101h.643c.087 0 .16.033.22.1.068.06.101.134.101.221Zm5.143 2.572v.643a.317.317 0 0 1-.1.23.3.3 0 0 1-.221.091h-.643a.335.335 0 0 1-.231-.09.336.336 0 0 1-.09-.231v-.643a.3.3 0 0 1 .09-.221.318.318 0 0 1 .23-.1h.644c.087 0 .16.033.22.1.068.06.101.134.101.22ZM9.425 3.664v.643a.318.318 0 0 1-.1.231.3.3 0 0 1-.222.09h-.642a.335.335 0 0 1-.232-.09.335.335 0 0 1-.09-.23v-.644a.3.3 0 0 1 .09-.22.318.318 0 0 1 .232-.101h.642c.087 0 .161.033.221.1.067.06.1.134.1.221Zm2.571 0v.643a.317.317 0 0 1-.1.231.3.3 0 0 1-.221.09h-.643a.335.335 0 0 1-.231-.09.336.336 0 0 1-.09-.23v-.644a.3.3 0 0 1 .09-.22.318.318 0 0 1 .23-.101h.644c.087 0 .16.033.22.1.068.06.101.134.101.221ZM9.425 17.486h3.857V2.057H1.71v15.429h3.857v-2.25a.3.3 0 0 1 .09-.221.318.318 0 0 1 .231-.1h3.214c.087 0 .161.033.221.1.067.06.1.134.1.22v2.25Zm5.143-16.072v16.714a.618.618 0 0 1-.191.453.618.618 0 0 1-.452.19H1.068a.618.618 0 0 1-.452-.19.618.618 0 0 1-.191-.453V1.415c0-.174.063-.325.19-.452a.618.618 0 0 1 .453-.19h12.857c.174 0 .325.063.452.19s.19.278.19.452Z" />
        </symbol>
        <symbol id="squares" viewBox="0 0 32 32">
            <path fill="#fff"
                d="M29.401 29.149v-19.224c0-0.002 0-0.004 0-0.006 0-0.153-0.068-0.29-0.176-0.383l-0.001-0.001c-0.093-0.109-0.23-0.177-0.383-0.177-0.002 0-0.004 0-0.006 0h-19.222c-0.16 0.001-0.304 0.068-0.406 0.177l-0 0c-0.099 0.096-0.16 0.23-0.16 0.379 0 0.004 0 0.007 0 0.011v-0.001 19.224c0 0.153 0.054 0.283 0.16 0.389 0.118 0.118 0.253 0.177 0.406 0.177h19.224c0.153 0 0.283-0.059 0.389-0.177 0.118-0.106 0.177-0.236 0.177-0.389zM31.663 9.925v19.224c0 0.777-0.278 1.443-0.83 1.996-0.496 0.513-1.19 0.831-1.959 0.831-0.013 0-0.027-0-0.040-0l0.002 0h-19.225c-0.011 0-0.025 0-0.038 0-0.768 0-1.462-0.318-1.957-0.83l-0.001-0.001c-0.513-0.496-0.831-1.19-0.831-1.959 0-0.013 0-0.027 0-0.040l-0 0.002v-19.224c0-0.778 0.277-1.443 0.83-1.997 0.496-0.513 1.19-0.831 1.959-0.831 0.013 0 0.027 0 0.040 0l-0.002-0h19.224c0.778 0 1.443 0.278 1.997 0.831s0.83 1.219 0.83 1.996zM24.878 3.139v2.828h-2.262v-2.828c0-0.002 0-0.003 0-0.005 0-0.153-0.068-0.29-0.176-0.383l-0.001-0.001c-0.093-0.109-0.23-0.177-0.383-0.177-0.002 0-0.004 0-0.007 0h-19.223c-0.16 0.001-0.304 0.068-0.406 0.177l-0 0c-0.099 0.096-0.16 0.23-0.16 0.379 0 0.003 0 0.006 0 0.010v-0 19.224c0 0.001 0 0.001 0 0.002 0 0.156 0.061 0.299 0.16 0.404l-0-0c0.105 0.099 0.247 0.16 0.404 0.16 0.001 0 0.002 0 0.002 0h2.827v2.261h-2.827c-0.011 0-0.025 0-0.038 0-0.768 0-1.462-0.318-1.957-0.83l-0.001-0.001c-0.513-0.496-0.831-1.19-0.831-1.959 0-0.013 0-0.027 0-0.040l-0 0.002v-19.224c0-0.777 0.277-1.443 0.83-1.996 0.496-0.513 1.19-0.832 1.959-0.832 0.013 0 0.026 0 0.039 0l-0.002-0h19.224c0.778 0 1.443 0.278 1.997 0.831s0.831 1.219 0.831 1.996z">
            </path>
        </symbol>
        <symbol id="diamond" viewBox="0 0 40 32">
            <path fill="#fff"
                d="M4.981 12.33l11.952 12.756-5.755-12.758h-6.196zM20.558 27.139l6.695-14.809h-13.39l6.694 14.809zM11.235 9.874l3.913-7.366h-5.026l-5.523 7.366h6.638zM24.184 25.087l11.952-12.758h-6.196l-5.756 12.759zM14.017 9.873h13.083l-3.914-7.365h-5.256l-3.913 7.366zM29.882 9.873h6.638l-5.525-7.365h-5.027l3.913 7.366zM32.585 0.552l7.366 9.821c0.179 0.23 0.262 0.499 0.25 0.806-0.011 0.299-0.133 0.568-0.327 0.767l0-0-18.415 19.642c-0.23 0.256-0.53 0.384-0.902 0.384-0.37 0-0.671-0.128-0.901-0.384l-18.416-19.642c-0.193-0.199-0.316-0.468-0.326-0.766l-0-0.002c-0.013-0.306 0.070-0.575 0.25-0.805l7.366-9.823c0.23-0.333 0.556-0.499 0.978-0.499h22.098c0.422 0 0.748 0.166 0.978 0.499z">
            </path>
        </symbol>
        <symbol id="play" viewBox="0 0 16 18">
            <path fill="white"
                d="M15.5851 9.20312C15.9311 9.01339 15.9311 8.70089 15.5851 8.51116L0.763672 0.274553C0.41769 0.0848207 0.138672 0.252231 0.138672 0.642856V17.0714C0.138672 17.4621 0.41769 17.6295 0.763672 17.4397L15.5851 9.20312Z" />
        </symbol>
        <symbol id="twitter" viewBox="0 0 39 32">
            <path fill="#fff"
                d="M37.193 4.274c-1.028 1.498-2.261 2.767-3.675 3.803l-0.044 0.030c0.013 0.275 0.020 0.598 0.020 0.923 0 2.142-0.318 4.21-0.91 6.16l0.039-0.15c-0.657 2.167-1.563 4.057-2.712 5.771l0.049-0.077c-1.207 1.853-2.603 3.447-4.195 4.821l-0.029 0.024c-1.637 1.394-3.611 2.51-5.922 3.351-2.163 0.787-4.66 1.242-7.263 1.242-0.054 0-0.109-0-0.163-0.001l0.008 0c-0.047 0-0.102 0.001-0.158 0.001-4.176 0-8.061-1.243-11.307-3.379l0.078 0.048c0.535 0.062 1.131 0.091 1.79 0.091 3.445 0 6.514-1.056 9.207-3.168-1.63-0.016-3.129-0.566-4.333-1.483l0.018 0.013c-1.218-0.91-2.132-2.166-2.603-3.621l-0.014-0.052c0.503 0.078 0.971 0.114 1.401 0.114 0.658 0 1.307-0.082 1.95-0.251-1.73-0.348-3.205-1.262-4.26-2.536l-0.010-0.012c-1.043-1.246-1.676-2.865-1.676-4.632 0-0.035 0-0.070 0.001-0.105l-0 0.005v-0.091c1.040 0.583 2.158 0.896 3.351 0.942-1.005-0.675-1.818-1.562-2.39-2.599l-0.019-0.038c-0.564-1.005-0.896-2.207-0.896-3.485 0-0.018 0-0.036 0-0.053l-0 0.003c0-1.346 0.336-2.594 1.010-3.742 1.837 2.252 4.082 4.093 6.633 5.43l0.117 0.056c2.482 1.3 5.399 2.123 8.494 2.272l0.048 0.002c-0.114-0.51-0.181-1.096-0.183-1.697v-0.002c0-2.050 0.718-3.794 2.155-5.234 1.304-1.346 3.129-2.181 5.148-2.181 0.038 0 0.077 0 0.115 0.001l-0.006-0c2.144 0 3.95 0.779 5.419 2.341 1.775-0.347 3.354-0.968 4.774-1.826l-0.065 0.037c-0.557 1.752-1.716 3.179-3.228 4.069l-0.034 0.018c1.582-0.183 3.025-0.589 4.363-1.187l-0.094 0.037z">
            </path>
        </symbol>
        <symbol id="google-plus" viewBox="0 0 48 32">
            <path fill="#fff"
                d="M28.868 15.884c0 2.786-0.582 5.27-1.748 7.452-1.158 2.154-2.856 3.886-4.918 5.052l-0.062 0.032c-2.158 1.232-4.628 1.848-7.414 1.848-0.011 0-0.023 0-0.035 0-2.056 0-4.013-0.43-5.784-1.204l0.093 0.036c-1.826-0.773-3.386-1.831-4.701-3.135l0.001 0.001c-1.303-1.314-2.361-2.874-3.098-4.604l-0.036-0.096c-0.737-1.677-1.166-3.631-1.166-5.686 0-0.014 0-0.028 0-0.042v0.002c0-1.996 0.388-3.904 1.166-5.726 0.776-1.82 1.82-3.388 3.134-4.7 1.314-1.302 2.874-2.359 4.604-3.096l0.096-0.036c1.677-0.737 3.631-1.166 5.686-1.166 0.014 0 0.028 0 0.042 0h-0.002c3.83 0 7.118 1.286 9.864 3.858l-4 3.838c-1.566-1.514-3.52-2.272-5.864-2.272-1.648 0-3.174 0.416-4.58 1.246-1.39 0.834-2.512 1.982-3.292 3.351l-0.024 0.045c-0.771 1.315-1.226 2.896-1.226 4.584 0 0.027 0 0.054 0 0.080l-0-0.004c-0 0.021-0 0.047-0 0.072 0 3.378 1.803 6.335 4.499 7.961l0.042 0.023c1.294 0.783 2.857 1.246 4.528 1.246 0.018 0 0.036-0 0.055-0h-0.003c1.114 0 2.13-0.154 3.056-0.462 0.936-0.308 1.706-0.69 2.31-1.146 0.594-0.462 1.11-0.984 1.551-1.565l0.015-0.021c0.456-0.59 0.784-1.146 0.984-1.668 0.214-0.522 0.362-1.018 0.442-1.486h-8.356v-5.064h13.9c0.162 0.844 0.242 1.66 0.242 2.452zM46.286 13.432v4.22h-4.2v4.2h-4.218v-4.2h-4.2v-4.22h4.2v-4.198h4.22v4.2h4.198z">
            </path>
        </symbol>
        <symbol id="facebook" viewBox="0 0 18 32">
            <path fill="#fff"
                d="M17.125 1.586v4.713h-2.804c-1.024 0-1.714 0.215-2.071 0.644s-0.537 1.072-0.537 1.929v3.374h5.232l-0.695 5.287h-4.537v13.552h-5.463v-13.552h-4.555v-5.287h4.555v-3.893c0-2.213 0.619-3.929 1.856-5.141 1.239-1.227 2.887-1.842 4.948-1.842 1.749 0 3.106 0.071 4.071 0.213z">
            </path>
        </symbol>
    </defs>
</svg>